<svg width="37" height="36" viewBox="0 0 37 36" fill="none" xmlns="http://www.w3.org/2000/svg">
<path d="M7.25 18C7.25 13.0688 7.25 10.6032 8.61194 8.94365C8.86127 8.63984 9.13984 8.36127 9.44365 8.11194C11.1032 6.75 13.5688 6.75 18.5 6.75C23.4312 6.75 25.8968 6.75 27.5564 8.11194C27.8601 8.36127 28.1387 8.63984 28.388 8.94365C29.75 10.6032 29.75 13.0688 29.75 18C29.75 22.9312 29.75 25.3968 28.388 27.0564C28.1387 27.3601 27.8601 27.6387 27.5564 27.888C25.8968 29.25 23.4312 29.25 18.5 29.25C13.5688 29.25 11.1032 29.25 9.44365 27.888C9.13984 27.6387 8.86127 27.3601 8.61194 27.0564C7.25 25.3968 7.25 22.9312 7.25 18Z" stroke="#F34564" stroke-width="1.5"/>
<path d="M14 33H23" stroke="#F34564" stroke-width="1.5" stroke-linecap="round"/>
<path d="M14 3H23" stroke="#F34564" stroke-width="1.5" stroke-linecap="round"/>
<path d="M14.5822 13.9971C15.9901 13.1746 17.2189 13.5061 17.957 14.034C18.2597 14.2505 18.4109 14.3587 18.5 14.3587C18.5891 14.3587 18.7403 14.2505 19.043 14.034C19.7812 13.5061 21.01 13.1746 22.4179 13.9971C24.2656 15.0765 24.6836 18.6375 20.4218 21.6417C19.61 22.2139 19.2041 22.5 18.5 22.5C17.7959 22.5 17.39 22.2139 16.5782 21.6417C12.3164 18.6375 12.7345 15.0765 14.5822 13.9971Z" stroke="#F34564" stroke-width="1.5" stroke-linecap="round"/>
</svg>
