<svg width="53" height="53" viewBox="0 0 53 53" fill="none" xmlns="http://www.w3.org/2000/svg">
<path d="M25.7681 11.5104C26.0728 10.8859 26.927 10.8859 27.2318 11.5104L29.0282 15.1928C29.1475 15.4372 29.3714 15.6073 29.6309 15.6505L33.5361 16.3002C34.1979 16.4103 34.4618 17.2575 33.9884 17.7532L31.1926 20.6813C31.0076 20.8753 30.9221 21.15 30.963 21.4206L31.5791 25.5071C31.6835 26.1992 30.9928 26.723 30.395 26.405L26.8727 24.5308C26.6386 24.406 26.3612 24.406 26.1272 24.5308L22.6049 26.405C22.0072 26.723 21.3163 26.1992 21.4207 25.5071L22.0369 21.4206C22.0777 21.15 21.9923 20.8753 21.8071 20.6813L19.0114 17.7532C18.5381 17.2575 18.8018 16.4103 19.4637 16.3002L23.3689 15.6505C23.6284 15.6073 23.8523 15.4372 23.9716 15.1928L25.7681 11.5104Z" stroke="#AEAEB2" stroke-width="1.5" stroke-linecap="round" stroke-linejoin="round"/>
<path d="M41.9584 19.8751C41.9584 28.4125 35.0375 35.3334 26.5001 35.3334C17.9627 35.3334 11.0417 28.4125 11.0417 19.8751C11.0417 11.3377 17.9627 4.41675 26.5001 4.41675C35.0375 4.41675 41.9584 11.3377 41.9584 19.8751Z" stroke="#AEAEB2" stroke-width="1.5" stroke-linecap="round" stroke-linejoin="round"/>
<path d="M28.7083 36.0895L32.2999 45.605C33.0236 47.5223 33.3855 48.4809 34.0149 48.5834C34.6458 48.4902 35.4187 47.436 36.1742 45.5297C36.7152 44.1648 36.9855 43.4824 37.5427 43.1145C37.7136 43.0016 37.9004 42.9124 38.0981 42.8495C38.742 42.6448 39.4827 42.8451 40.9638 43.2454C42.5477 43.6736 43.6478 43.5542 44.0822 43.2454C44.2101 43.1547 44.0822 43.2386 44.0822 43.2386C44.338 42.785 43.9928 42.0774 43.3027 40.6623L38.5488 30.9167" stroke="#AEAEB2" stroke-width="1.5" stroke-linecap="round" stroke-linejoin="round"/>
<path d="M24.2916 36.0889L20.7 45.6028C19.9763 47.5197 19.2604 48.4809 18.631 48.5834C18 48.4902 17.6222 47.5373 16.8668 45.6313C16.3258 44.2668 16.0142 43.4806 15.4571 43.1125C15.2863 42.9996 15.0993 42.9106 14.9018 42.8477C14.2578 42.643 13.5172 42.8433 12.0359 43.2437C10.4521 43.6716 9.35199 43.5453 8.9175 43.2366C8.66182 42.7832 9.00696 42.0757 9.69722 40.6608L14.451 30.9167" stroke="#AEAEB2" stroke-width="1.5" stroke-linecap="round" stroke-linejoin="round"/>
</svg>
