<svg width="37" height="36" viewBox="0 0 37 36" fill="none" xmlns="http://www.w3.org/2000/svg">
<path d="M21.3887 19.1662L18.1663 15.9438C17.7271 15.5046 17.5075 15.285 17.2705 15.1675C16.8197 14.9442 16.2905 14.9442 15.8396 15.1675C15.6028 15.285 15.3831 15.5046 14.9438 15.9438C14.5046 16.3831 14.2849 16.6027 14.1675 16.8396C13.9442 17.2905 13.9442 17.8197 14.1675 18.2704C14.2849 18.5074 14.5046 18.727 14.9438 19.1662L18.1663 22.3887M21.3887 19.1662L31.0562 28.8337C31.4954 29.2729 31.715 29.4925 31.8325 29.7295C32.0558 30.1803 32.0558 30.7095 31.8325 31.1604C31.715 31.3972 31.4954 31.6168 31.0562 32.0562C30.6169 32.4954 30.3973 32.715 30.1604 32.8324C29.7095 33.0558 29.1803 33.0558 28.7296 32.8324C28.4926 32.715 28.273 32.4954 27.8338 32.0562L18.1663 22.3887M21.3887 19.1662L18.1663 22.3887" stroke="#F34564" stroke-width="1.5" stroke-linecap="round" stroke-linejoin="round"/>
<path d="M26 3L26.4422 4.1949C27.0219 5.76176 27.3119 6.54518 27.8834 7.11668C28.4549 7.68818 29.2382 7.97807 30.8051 8.55785L32 9L30.8051 9.44215C29.2382 10.0219 28.4549 10.3118 27.8834 10.8833C27.3119 11.4548 27.0219 12.2382 26.4422 13.8051L26 15L25.5578 13.8051C24.9781 12.2383 24.6881 11.4548 24.1166 10.8833C23.5451 10.3118 22.7618 10.0219 21.1949 9.44215L20 9L21.1949 8.55785C22.7618 7.97807 23.5451 7.68818 24.1166 7.11668C24.6881 6.54518 24.9781 5.76176 25.5578 4.1949L26 3Z" stroke="#F34564" stroke-width="1.5" stroke-linejoin="round"/>
<path d="M9.5 6L9.83162 6.89617C10.2665 8.0713 10.4839 8.65889 10.9125 9.08751C11.3411 9.51612 11.9287 9.73355 13.1038 10.1684L14 10.5L13.1038 10.8316C11.9287 11.2665 11.3411 11.4839 10.9125 11.9125C10.4839 12.3411 10.2665 12.9287 9.83162 14.1038L9.5 15L9.16838 14.1038C8.73355 12.9287 8.51612 12.3411 8.0875 11.9125C7.65889 11.4839 7.07131 11.2665 5.89618 10.8316L5 10.5L5.89618 10.1684C7.07131 9.73355 7.65889 9.51612 8.0875 9.0875C8.51612 8.65889 8.73355 8.0713 9.16838 6.89617L9.5 6Z" stroke="#F34564" stroke-width="1.5" stroke-linejoin="round"/>
</svg>
