<svg width="37" height="36" viewBox="0 0 37 36" fill="none" xmlns="http://www.w3.org/2000/svg">
<path d="M18.5 31.5C16.4882 31.5 15.3286 30.6417 13.0093 28.9251C0.83258 19.9124 2.0271 9.22941 7.30616 5.99123C11.3286 3.52385 14.8394 4.51817 16.9484 6.10202C17.8133 6.75144 18.2456 7.07615 18.5 7.07615C18.7544 7.07615 19.1867 6.75144 20.0516 6.10202C22.1606 4.51817 25.6713 3.52385 29.6939 5.99123C32.2718 7.57257 33.8757 10.9293 33.4241 15" stroke="#F34564" stroke-width="1.5" stroke-linecap="round"/>
<path d="M21.5 27C21.5 27 23 27 24.5 30C24.5 30 29.2648 22.5 33.5 21" stroke="#F34564" stroke-width="1.5" stroke-linecap="round" stroke-linejoin="round"/>
</svg>
