<svg width="37" height="36" viewBox="0 0 37 36" fill="none" xmlns="http://www.w3.org/2000/svg">
<path d="M18.0029 7.81838C18.2099 7.39419 18.7901 7.39421 18.9971 7.81838L20.2174 10.3197C20.2984 10.4857 20.4505 10.6012 20.6267 10.6305L23.2793 11.0718C23.7289 11.1466 23.9081 11.7221 23.5865 12.0588L21.6875 14.0477C21.5618 14.1795 21.5038 14.366 21.5315 14.5499L21.95 17.3256C22.021 17.7957 21.5518 18.1515 21.1457 17.9355L18.7532 16.6625C18.5942 16.5777 18.4058 16.5777 18.2468 16.6625L15.8543 17.9355C15.4483 18.1515 14.9791 17.7957 15.0499 17.3256L15.4685 14.5499C15.4962 14.366 15.4382 14.1795 15.3124 14.0477L13.4134 12.0588C13.092 11.7221 13.2711 11.1466 13.7207 11.0718L16.3733 10.6305C16.5496 10.6012 16.7016 10.4857 16.7826 10.3197L18.0029 7.81838Z" stroke="#F34564" stroke-width="1.5" stroke-linecap="round" stroke-linejoin="round"/>
<path d="M29 13.5C29 19.299 24.299 24 18.5 24C12.701 24 8 19.299 8 13.5C8 7.70102 12.701 3 18.5 3C24.299 3 29 7.70102 29 13.5Z" stroke="#F34564" stroke-width="1.5" stroke-linecap="round" stroke-linejoin="round"/>
<path d="M20 24.5136L22.4396 30.977C22.9311 32.2793 23.177 32.9304 23.6045 33C24.033 32.9367 24.5581 32.2206 25.0712 30.9258C25.4387 29.9987 25.6223 29.5352 26.0007 29.2853C26.1168 29.2086 26.2438 29.148 26.378 29.1052C26.8154 28.9662 27.3185 29.1022 28.3245 29.3742C29.4003 29.665 30.1476 29.5839 30.4427 29.3742C30.5295 29.3125 30.4427 29.3696 30.4427 29.3696C30.6164 29.0615 30.382 28.5808 29.9132 27.6196L26.6842 21" stroke="#F34564" stroke-width="1.5" stroke-linecap="round" stroke-linejoin="round"/>
<path d="M17 24.5132L14.5604 30.9754C14.0689 32.2774 13.5826 32.9304 13.1551 33C12.7265 32.9367 12.4699 32.2895 11.9567 30.9948C11.5893 30.068 11.3776 29.534 10.9992 29.2839C10.8832 29.2073 10.7562 29.1468 10.622 29.1041C10.1846 28.965 9.68152 29.1011 8.67541 29.373C7.59962 29.6637 6.85235 29.5779 6.55723 29.3682C6.38356 29.0603 6.61799 28.5796 7.08685 27.6186L10.3158 21" stroke="#F34564" stroke-width="1.5" stroke-linecap="round" stroke-linejoin="round"/>
</svg>
