<svg width="95" height="44" viewBox="0 0 95 44" fill="none" xmlns="http://www.w3.org/2000/svg">
<g clip-path="url(#clip0_12_1567)">
<path d="M47.55 35.4271C45.431 40.6395 41.1668 44 36.9289 44C25.0607 44 24.4959 30.4677 23.14 24.7424C22.2805 22.1424 20.3685 19.9527 17.6848 19.247C16.4587 18.9251 15.0624 18.8685 13.8644 19.3744C12.4435 19.974 11.6981 21.3376 11.3262 22.7862C11.2069 23.2478 11.1174 23.7183 11.0701 24.1923C11.0455 24.4205 11.0315 24.6486 11.0297 24.8786C11.0262 25.1439 11.0403 25.4092 11.0701 25.6727C11.1595 26.4722 11.4086 27.2486 11.8436 27.9331C12.7277 29.3215 14.2345 30.1723 15.7728 30.6215C16.185 30.7436 16.6095 30.8426 17.0375 30.8957V32.5194H2.42065V30.8957C2.84865 30.8426 3.27314 30.7436 3.68535 30.6215C5.22369 30.1723 6.73046 29.3215 7.61452 27.9331C8.04954 27.2486 8.29862 26.4722 8.38808 25.6727C8.38808 25.6727 10.8087 2.26394 4.66238 2.26394H0V0H21.3614V2.26394H17.4199C11.2736 2.26394 11.0701 19.3867 11.0701 19.3867C11.0701 19.3867 24.1153 10.9394 25.4712 10.0409C26.4254 8.8665 24.3065 8.99385 24.3065 8.99385V7.90433H36.194V8.93018C28.8198 8.93018 18.9021 16.6223 18.9021 16.6223C32.0403 20.8954 29.2425 27.2203 34.3294 35.1689C39.3619 43.0361 47.3851 35.5827 47.55 35.4271Z" fill="#F34564"/>
<path d="M40.0512 22.4024C39.4268 22.8923 38.8216 23.2602 38.2393 23.5043C37.6551 23.7484 37.0009 23.8722 36.2747 23.8722C35.6116 23.8722 35.0293 23.7395 34.5276 23.476C34.0259 23.2124 33.64 22.8534 33.3681 22.4024C33.0962 21.9514 32.9612 21.4614 32.9612 20.9326C32.9612 20.2198 33.1857 19.6131 33.633 19.1091C34.0803 18.6067 34.696 18.2689 35.4783 18.0974C35.6414 18.0584 36.0501 17.9735 36.6992 17.8391C37.3482 17.7047 37.906 17.5827 38.3691 17.4712C38.8321 17.3598 39.3356 17.2254 39.8793 17.0662C39.8478 16.3782 39.7109 15.8741 39.4671 15.554C39.2251 15.2321 38.7216 15.0711 37.9568 15.0711C37.3008 15.0711 36.8062 15.1631 36.4746 15.347C36.1431 15.531 35.8589 15.8087 35.6221 16.1765C35.3853 16.5462 35.2187 16.7885 35.1205 16.907C35.0222 17.0255 34.8135 17.0839 34.4908 17.0839C34.1996 17.0839 33.9505 16.9902 33.7382 16.8027C33.526 16.6152 33.4208 16.3746 33.4208 16.0828C33.4208 15.6247 33.5821 15.179 33.9031 14.7474C34.2241 14.3141 34.7276 13.9586 35.4081 13.6791C36.0905 13.3997 36.9377 13.26 37.9551 13.26C39.0917 13.26 39.9846 13.3944 40.6336 13.665C41.2844 13.9356 41.7422 14.3636 42.0106 14.9491C42.2789 15.5345 42.4122 16.311 42.4122 17.2785C42.4122 17.8887 42.4122 18.4086 42.407 18.8349C42.4035 19.2612 42.3982 19.7352 42.3929 20.2569C42.3929 20.7469 42.4736 21.258 42.635 21.7886C42.7964 22.3193 42.8771 22.6624 42.8771 22.8145C42.8771 23.0816 42.7525 23.3256 42.5035 23.545C42.2544 23.7643 41.972 23.8739 41.6562 23.8739C41.3914 23.8739 41.13 23.7484 40.8704 23.4972C40.6108 23.2461 40.3371 22.8817 40.0477 22.4041L40.0512 22.4024ZM39.8811 18.6315C39.5022 18.7712 38.9514 18.9198 38.2287 19.0755C37.506 19.2311 37.0061 19.3461 36.729 19.4186C36.4518 19.4911 36.187 19.6344 35.9344 19.8484C35.6818 20.0624 35.5555 20.3595 35.5555 20.7416C35.5555 21.1236 35.7028 21.472 36.001 21.748C36.2975 22.0239 36.6851 22.1636 37.1657 22.1636C37.6762 22.1636 38.148 22.0504 38.5813 21.824C39.0128 21.5976 39.3303 21.3076 39.532 20.9503C39.7653 20.5559 39.8828 19.9067 39.8828 19.0029V18.6315H39.8811Z" fill="#1D1D1B"/>
<path d="M47.3869 14.7191V15.034C47.8412 14.4291 48.3376 13.9851 48.8779 13.7021C49.4181 13.4191 50.0373 13.2776 50.7372 13.2776C51.4371 13.2776 52.0282 13.428 52.565 13.7269C53.1017 14.0258 53.5017 14.4485 53.7665 14.9968C53.9367 15.3152 54.0472 15.6583 54.098 16.028C54.1489 16.3976 54.1735 16.8681 54.1735 17.4412V22.2892C54.1735 22.8109 54.056 23.2054 53.8191 23.4724C53.5823 23.7395 53.2754 23.8739 52.8965 23.8739C52.5176 23.8739 52.1984 23.7378 51.9598 23.4636C51.7195 23.1895 51.6002 22.7986 51.6002 22.2892V17.947C51.6002 17.0874 51.4827 16.4312 51.2459 15.9767C51.0091 15.5221 50.5372 15.294 49.8303 15.294C49.369 15.294 48.9498 15.4319 48.5709 15.7096C48.192 15.9873 47.9149 16.3658 47.7377 16.8504C47.6114 17.2378 47.5483 17.9647 47.5483 19.0259V22.291C47.5483 22.8198 47.4272 23.216 47.1834 23.4795C46.9396 23.7431 46.6274 23.8757 46.2415 23.8757C45.8556 23.8757 45.5626 23.7395 45.3241 23.4654C45.0838 23.1912 44.9645 22.8003 44.9645 22.291V14.7598C44.9645 14.2628 45.0715 13.8932 45.2855 13.6473C45.4995 13.4032 45.7942 13.2794 46.166 13.2794C46.3923 13.2794 46.5975 13.3342 46.7817 13.4421C46.9641 13.55 47.1115 13.7127 47.222 13.9285C47.3325 14.1443 47.3869 14.4096 47.3869 14.7209V14.7191Z" fill="#1D1D1B"/>
<path d="M63.8298 22.3829V22.1247C63.4825 22.5262 63.1404 22.8516 62.8019 23.1028C62.4651 23.3539 62.0985 23.545 61.7038 23.6758C61.3091 23.8067 60.8794 23.8722 60.411 23.8722C59.7918 23.8722 59.22 23.7395 58.6938 23.476C58.1676 23.2124 57.7115 22.8357 57.3256 22.3458C56.9414 21.8559 56.6485 21.2793 56.4503 20.6178C56.2521 19.9563 56.1521 19.2399 56.1521 18.4706C56.1521 16.8416 56.5468 15.5717 57.3361 14.6625C58.1255 13.7534 59.1639 13.2971 60.4496 13.2971C61.1934 13.2971 61.8213 13.4262 62.3335 13.6844C62.8457 13.9427 63.3439 14.3389 63.8298 14.873V11.0261C63.8298 10.4919 63.935 10.0869 64.1473 9.81453C64.3595 9.54038 64.6595 9.40419 65.0506 9.40419C65.4418 9.40419 65.7435 9.52977 65.954 9.78092C66.1662 10.0321 66.2715 10.4035 66.2715 10.8934V22.3847C66.2715 22.8817 66.1575 23.2531 65.9312 23.5007C65.7049 23.7484 65.4102 23.8739 65.0506 23.8739C64.691 23.8739 64.4051 23.7448 64.1753 23.4866C63.9455 23.2284 63.8298 22.8605 63.8298 22.3847V22.3829ZM58.7464 18.5555C58.7464 19.2612 58.8552 19.8625 59.0727 20.3595C59.2902 20.8565 59.5884 21.2297 59.9673 21.4809C60.3461 21.732 60.7584 21.8576 61.2074 21.8576C61.6564 21.8576 62.0774 21.7391 62.4528 21.5003C62.8282 21.2616 63.1281 20.8954 63.3527 20.402C63.5772 19.9085 63.6894 19.293 63.6894 18.5555C63.6894 17.8621 63.5772 17.2661 63.3527 16.7655C63.1281 16.2668 62.8264 15.8847 62.444 15.6194C62.0616 15.3559 61.6442 15.2232 61.1899 15.2232C60.7355 15.2232 60.2935 15.3576 59.9216 15.6283C59.5498 15.8989 59.2604 16.2862 59.0551 16.7921C58.8499 17.2979 58.7482 17.8851 58.7482 18.5537L58.7464 18.5555Z" fill="#1D1D1B"/>
<path d="M75.3962 22.4024C74.7717 22.8923 74.1666 23.2602 73.5842 23.5043C73.0001 23.7484 72.3458 23.8722 71.6196 23.8722C70.9566 23.8722 70.3742 23.7395 69.8726 23.476C69.3709 23.2124 68.985 22.8534 68.7131 22.4024C68.4412 21.9514 68.3062 21.4614 68.3062 20.9326C68.3062 20.2198 68.5307 19.6131 68.978 19.1091C69.4253 18.6067 70.041 18.2689 70.8233 18.0974C70.9864 18.0584 71.3951 17.9735 72.0441 17.8391C72.6931 17.7047 73.2509 17.5827 73.714 17.4712C74.1771 17.3598 74.6805 17.2254 75.2243 17.0662C75.1927 16.3782 75.0559 15.8741 74.8121 15.554C74.57 15.2321 74.0666 15.0711 73.3018 15.0711C72.6458 15.0711 72.1511 15.1631 71.8196 15.347C71.4881 15.531 71.2039 15.8087 70.9671 16.1765C70.7303 16.5462 70.5637 16.7885 70.4654 16.907C70.3672 17.0255 70.1585 17.0839 69.8357 17.0839C69.5445 17.0839 69.2955 16.9902 69.0832 16.8027C68.871 16.6152 68.7657 16.3746 68.7657 16.0828C68.7657 15.6247 68.9271 15.179 69.2481 14.7474C69.5691 14.3141 70.0725 13.9586 70.7531 13.6791C71.4355 13.3997 72.2827 13.26 73.3001 13.26C74.4367 13.26 75.3295 13.3944 75.9786 13.665C76.6293 13.9356 77.0871 14.3636 77.3555 14.9491C77.6239 15.5345 77.7572 16.311 77.7572 17.2785C77.7572 17.8887 77.7572 18.4086 77.752 18.8349C77.7484 19.2612 77.7432 19.7352 77.7379 20.2569C77.7379 20.7469 77.8186 21.258 77.98 21.7886C78.1414 22.3193 78.222 22.6624 78.222 22.8145C78.222 23.0816 78.0975 23.3256 77.8484 23.545C77.5993 23.7643 77.3169 23.8739 77.0012 23.8739C76.7363 23.8739 76.475 23.7484 76.2154 23.4972C75.9558 23.2461 75.6821 22.8817 75.3927 22.4041L75.3962 22.4024ZM75.2261 18.6315C74.8472 18.7712 74.2964 18.9198 73.5737 19.0755C72.851 19.2311 72.3511 19.3461 72.0739 19.4186C71.7968 19.4911 71.5319 19.6344 71.2793 19.8484C71.0267 20.0624 70.9005 20.3595 70.9005 20.7416C70.9005 21.1236 71.0478 21.472 71.346 21.748C71.6424 22.0239 72.0301 22.1636 72.5107 22.1636C73.0212 22.1636 73.493 22.0504 73.9263 21.824C74.3578 21.5976 74.6753 21.3076 74.877 20.9503C75.1103 20.5559 75.2278 19.9067 75.2278 19.0029V18.6315H75.2261Z" fill="#1D1D1B"/>
<path d="M80.3849 22.2874V10.9872C80.3849 10.4654 80.5007 10.071 80.7304 9.80392C80.9602 9.53684 81.2707 9.40242 81.6636 9.40242C82.0565 9.40242 82.3705 9.53507 82.6108 9.79861C82.8511 10.0621 82.9704 10.4583 82.9704 10.9872V22.2874C82.9704 22.8163 82.8494 23.2124 82.6056 23.476C82.3618 23.7395 82.0478 23.8722 81.6636 23.8722C81.2795 23.8722 80.9778 23.736 80.741 23.4618C80.5042 23.1877 80.3866 22.7968 80.3866 22.2874H80.3849Z" fill="#1D1D1B"/>
<path d="M92.1689 22.4024C91.5445 22.8923 90.9393 23.2602 90.3569 23.5043C89.7728 23.7484 89.1185 23.8722 88.3923 23.8722C87.7293 23.8722 87.1469 23.7395 86.6453 23.476C86.1436 23.2124 85.7577 22.8534 85.4858 22.4024C85.2139 21.9514 85.0789 21.4614 85.0789 20.9326C85.0789 20.2198 85.3034 19.6131 85.7507 19.1091C86.198 18.6067 86.8137 18.2689 87.596 18.0974C87.7591 18.0584 88.1678 17.9735 88.8168 17.8391C89.4658 17.7047 90.0236 17.5827 90.4867 17.4712C90.9498 17.3598 91.4532 17.2254 91.997 17.0662C91.9654 16.3782 91.8286 15.8741 91.5848 15.554C91.3427 15.2321 90.8393 15.0711 90.0745 15.0711C89.4185 15.0711 88.9238 15.1631 88.5923 15.347C88.2608 15.531 87.9766 15.8087 87.7398 16.1765C87.503 16.5462 87.3364 16.7885 87.2381 16.907C87.1399 17.0255 86.9312 17.0839 86.6084 17.0839C86.3172 17.0839 86.0682 16.9902 85.8559 16.8027C85.6437 16.6152 85.5384 16.3746 85.5384 16.0828C85.5384 15.6247 85.6998 15.179 86.0208 14.7474C86.3418 14.3141 86.8452 13.9586 87.5258 13.6791C88.2082 13.3997 89.0554 13.26 90.0728 13.26C91.2094 13.26 92.1023 13.3944 92.7513 13.665C93.402 13.9356 93.8599 14.3636 94.1282 14.9491C94.3966 15.5345 94.5299 16.311 94.5299 17.2785C94.5299 17.8887 94.5299 18.4086 94.5247 18.8349C94.5211 19.2612 94.5159 19.7352 94.5106 20.2569C94.5106 20.7469 94.5913 21.258 94.7527 21.7886C94.9141 22.3193 94.9948 22.6624 94.9948 22.8145C94.9948 23.0816 94.8702 23.3256 94.6211 23.545C94.372 23.7643 94.0896 23.8739 93.7739 23.8739C93.509 23.8739 93.2477 23.7484 92.9881 23.4972C92.7285 23.2461 92.4548 22.8817 92.1654 22.4041L92.1689 22.4024ZM91.9988 18.6315C91.6199 18.7712 91.0691 18.9198 90.3464 19.0755C89.6237 19.2311 89.1238 19.3461 88.8467 19.4186C88.5695 19.4911 88.3046 19.6344 88.052 19.8484C87.7995 20.0624 87.6732 20.3595 87.6732 20.7416C87.6732 21.1236 87.8205 21.472 88.1187 21.748C88.4151 22.0239 88.8028 22.1636 89.2834 22.1636C89.7939 22.1636 90.2657 22.0504 90.699 21.824C91.1305 21.5976 91.448 21.3076 91.6497 20.9503C91.883 20.5559 92.0005 19.9067 92.0005 19.0029V18.6315H91.9988Z" fill="#1D1D1B"/>
</g>
<defs>
<clipPath id="clip0_12_1567">
<rect width="95" height="44" fill="white"/>
</clipPath>
</defs>
</svg>
